<!-- Created with Inkscape (http://www.inkscape.org/) --><svg xmlns:inkscape="http://www.inkscape.org/namespaces/inkscape" xmlns:sodipodi="http://sodipodi.sourceforge.net/DTD/sodipodi-0.dtd" xmlns:xlink="http://www.w3.org/1999/xlink" xmlns="http://www.w3.org/2000/svg" xmlns:svg="http://www.w3.org/2000/svg" width="64" height="64" viewBox="0 0 16.933333 16.933333" version="1.1" id="svg1" inkscape:version="1.3.2 (091e20e, 2023-11-25)" sodipodi:docname="dog&#21407;&#22411;open.tar">
  <sodipodi:namedview id="namedview1" pagecolor="#ffffff" bordercolor="#111111" borderopacity="1" inkscape:showpageshadow="0" inkscape:pageopacity="0" inkscape:pagecheckerboard="1" inkscape:deskcolor="#d1d1d1" inkscape:document-units="mm" showgrid="true" inkscape:zoom="5.9229424" inkscape:cx="28.955203" inkscape:cy="18.065345" inkscape:window-width="1328" inkscape:window-height="771" inkscape:window-x="0" inkscape:window-y="25" inkscape:window-maximized="0" inkscape:current-layer="layer75" showguides="true">
    <inkscape:grid id="grid1" units="px" originx="0" originy="0" spacingx="0.26458334" spacingy="0.26458334" empcolor="#0099e5" empopacity="0.30196078" color="#0099e5" opacity="0.14901961" empspacing="5" dotted="false" gridanglex="30" gridanglez="30" visible="true" enabled="true"/>
  </sodipodi:namedview>
  <defs id="defs1"/>
  <g inkscape:groupmode="layer" id="layer34" inkscape:label="&#21322;&#26426;&#26800;&#33080;4&#38454;&#27573;" sodipodi:insensitive="true" style="display:inline">
    <g id="g1320" style="display:inline">
      <rect style="fill:#999999;stroke-width:0.264583" id="rect1210" width="0.26458269" height="0.26458335" x="5.5562506" y="4.7625003"/>
      <rect style="fill:#999999;stroke-width:0.264583" id="rect1211" width="0.26458335" height="0.26458281" x="5.291667" y="4.4979172"/>
      <rect style="fill:#999999;stroke-width:0.264583" id="rect1212" width="0.26458329" height="0.26130274" x="5.2916665" y="4.2366142"/>
      <rect style="fill:#666666;stroke-width:0.264583" id="rect1213" width="0.52916664" height="0.26458335" x="4.7624998" y="4.2333336"/>
      <rect style="fill:#999999;stroke-width:0.264583" id="rect1214" width="0.26458335" height="0.26458335" x="5.0270839" y="3.7041669"/>
      <rect style="fill:#666666;stroke-width:0.264583" id="rect1215" width="0.9260422" height="1.1920929e-07" x="4.6302085" y="4.8947916"/>
      <rect style="fill:#666666;stroke-width:0.264583" id="rect1216" width="1.0583328" height="0.26458335" x="4.4979172" y="4.7625003"/>
      <rect style="fill:#666666;stroke-width:0.264583" id="rect1217" width="0.26458386" height="0.79374999" x="4.4979167" y="5.0270834"/>
      <rect style="fill:#333333;stroke-width:0.264583" id="rect1218" width="0.26458332" height="0.79375005" x="5.2916665" y="5.0270839"/>
      <rect style="fill:#ff0000;stroke-width:0.264583" id="rect1219" width="0.26458275" height="0.79374945" x="5.0270839" y="5.0270839"/>
      <rect style="fill:#cccccc;stroke-width:0.264583" id="rect1220" width="1.3229172" height="0.26458332" x="4.4979167" y="5.8208332"/>
      <rect style="fill:#999999;stroke-width:0.264583" id="rect1221" width="1.0583333" height="0.26458281" x="4.7624998" y="4.4979172"/>
      <rect style="fill:#999999;stroke-width:0.264583" id="rect1222" width="1.3229162" height="0.26458287" x="4.4979172" y="3.9687502"/>
      <rect style="fill:#4d4d4d;stroke-width:0.264583" id="rect1223" width="0.26458272" height="0.52916664" x="5.291667" y="3.4395833"/>
      <rect style="fill:#4d4d4d;stroke-width:0.264583" id="rect1224" width="0.26458335" height="0.26458335" x="5.0270839" y="3.7041669"/>
      <rect style="fill:#4d4d4d;stroke-width:0.264583" id="rect1225" width="0.52916688" height="0.26786444" x="4.4979167" y="3.9687498"/>
      <rect style="fill:#333333;stroke-width:0.264583" id="rect1226" width="0.26458332" height="0.52916616" x="4.2333331" y="4.2333336"/>
      <rect style="fill:#333333;stroke-width:0.264583" id="rect1227" width="0.52916664" height="0.26458374" x="4.7624998" y="3.4395833"/>
      <rect style="fill:#333333;stroke-width:0.264583" id="rect1228" width="0.52916664" height="0.26458332" x="4.4979167" y="3.7041667"/>
      <rect style="fill:#333333;stroke-width:0.264583" id="rect1229" width="0.26458332" height="0.26458335" x="4.2333331" y="3.9687502"/>
      <rect style="fill:#333333;stroke-width:0.264583" id="rect1230" width="0.26458257" height="0.26458323" x="5.5562506" y="3.7041667"/>
      <rect style="fill:#333333;stroke-width:0.264583" id="rect1231" width="0.26458278" height="0.79375017" x="5.8208337" y="3.9687502"/>
      <rect style="fill:#333333;stroke-width:0.264583" id="rect1232" width="0.26458257" height="0.26130274" x="5.5562506" y="4.2366142"/>
      <rect style="fill:#b3b3b3;stroke-width:0.264583" id="rect1233" width="0.26458403" height="1.322916" x="6.0854168" y="4.7625003"/>
      <rect style="fill:#000000;stroke-width:0.264583" id="rect1234" width="0.2645826" height="0.52916604" x="6.3500004" y="5.5562506"/>
      <rect style="fill:#999999;stroke-width:0.264583" id="rect1238" width="0.52916634" height="0.26458284" x="2.6458335" y="4.2333336"/>
      <rect style="fill:#000000;stroke-width:0.264583" id="rect1239" width="0.26458293" height="0.26458278" x="3.4395835" y="4.7625003"/>
      <rect style="fill:#333333;stroke-width:0.264583" id="rect1240" width="0.26458332" height="0.26458263" x="2.3812499" y="6.0854173"/>
      <rect style="fill:#000000;stroke-width:0.264583" id="rect1241" width="0.52916634" height="0.26458335" x="2.6458335" y="6.3500004"/>
      <rect style="fill:#000000;stroke-width:0.264583" id="rect1242" width="0.26458332" height="0.26458263" x="3.175" y="6.0854173"/>
      <rect style="fill:#000000;stroke-width:0.264583" id="rect1243" width="0.26458332" height="0.26458335" x="3.4395833" y="5.8208337"/>
      <rect style="fill:#000000;stroke-width:0.264583" id="rect1244" width="0.26458377" height="0.79374999" x="3.7041667" y="5.0270834"/>
      <rect style="fill:#4d4d4d;stroke-width:0.264583" id="rect1245" width="0.52916658" height="0.26458344" x="3.175" y="6.614583"/>
      <rect style="fill:#333333;stroke-width:0.264583" id="rect1246" width="0.26458335" height="0.26458412" x="3.7041669" y="6.8791666"/>
      <rect style="fill:#333333;stroke-width:0.264583" id="rect1247" width="0.26458332" height="0.26458335" x="3.4395833" y="5.8208337"/>
      <rect style="fill:#000000;stroke-width:0.264583" id="rect1248" width="0.26458326" height="0.79453218" x="3.7041667" y="5.0263009"/>
      <rect style="fill:#000000;stroke-width:0.264583" id="rect1249" width="1.0583333" height="0.26458335" x="3.175" y="8.2020836"/>
      <rect style="fill:#333333;stroke-width:0.264583" id="rect1250" width="0.52916664" height="0.26458266" x="3.9687498" y="5.8208337"/>
      <rect style="fill:#4d4d4d;stroke-width:0.264583" id="rect1251" width="0.26458386" height="0.26458263" x="4.4979167" y="6.0854173"/>
      <rect style="fill:#4d4d4d;stroke-width:0.264583" id="rect1252" width="0.26458332" height="0.26458299" x="4.2333331" y="2.9104168"/>
      <rect style="fill:#4d4d4d;stroke-width:0.264583" id="rect1253" width="0.26458287" height="0.52916664" x="3.9687502" y="2.3812499"/>
      <rect style="fill:#4d4d4d;stroke-width:0.264583" id="rect1254" width="0.52916622" height="0.26458335" x="3.4395835" y="2.3812501"/>
      <rect style="fill:#4d4d4d;stroke-width:0.264583" id="rect1255" width="0.26458293" height="0.26458335" x="3.4395835" y="2.6458335"/>
      <rect style="fill:#4d4d4d;stroke-width:0.264583" id="rect1256" width="0.26458332" height="0.26458335" x="3.175" y="2.9104168"/>
      <rect style="fill:#4d4d4d;stroke-width:0.264583" id="rect1257" width="0.26458332" height="0.52916628" x="2.9104166" y="3.1750002"/>
      <rect style="fill:#4d4d4d;stroke-width:0.264583" id="rect1258" width="0.26458302" height="0.52916622" x="2.6458335" y="3.7041669"/>
      <rect style="fill:#333333;stroke-width:0.264583" id="rect1259" width="0.26458332" height="0.52916664" x="2.9104166" y="3.7041667"/>
      <rect style="fill:#333333;stroke-width:0.264583" id="rect1260" width="0.26458371" height="0.5291667" x="3.175" y="3.1750002"/>
      <rect style="fill:#333333;stroke-width:0.264583" id="rect1261" width="0.26458293" height="0.26458335" x="3.4395835" y="2.9104168"/>
      <rect style="fill:#333333;stroke-width:0.264583" id="rect1262" width="0.26458332" height="0.26458332" x="3.7041667" y="2.6458333"/>
      <rect style="fill:#333333;stroke-width:0.264583" id="rect1263" width="0.26458332" height="0.26458299" x="3.9687498" y="2.9104168"/>
      <rect style="fill:#333333;stroke-width:0.264583" id="rect1264" width="0.26458284" height="0.5291667" x="4.2333336" y="3.1750002"/>
      <rect style="fill:#1a1a1a;stroke-width:0.264583" id="rect1265" width="0.26458332" height="0.26458335" x="3.7041667" y="2.9104168"/>
      <rect style="fill:#1a1a1a;stroke-width:0.264583" id="rect1266" width="0.26458332" height="0.5291667" x="3.4395833" y="3.1750002"/>
      <rect style="fill:#1a1a1a;stroke-width:0.264583" id="rect1267" width="0.26458296" height="0.79374957" x="3.1750002" y="3.7041669"/>
      <rect style="fill:#1a1a1a;stroke-width:0.264583" id="rect1268" width="0.26458332" height="0.79375005" x="3.9687498" y="3.1750002"/>
      <rect style="fill:#808080;stroke-width:0.264583" id="rect1269" width="0.26458332" height="1.0583329" x="3.7041667" y="3.1750002"/>
      <rect style="fill:#808080;stroke-width:0.264583" id="rect1270" width="0.13229136" height="0.52916664" x="3.4395835" y="3.7041669"/>
      <rect style="fill:#808080;stroke-width:0.264583" id="rect1271" width="0.26458335" height="0.52916712" x="3.4395835" y="3.7041667"/>
      <rect style="fill:#000000;stroke-width:0.264583" id="rect1272" width="0.26458335" height="0.26458335" x="3.7041669" y="4.2333336"/>
      <rect style="fill:#4d4d4d;stroke-width:0.264583" id="rect1273" width="0.26458281" height="0.5291667" x="4.4979172" y="4.2333336"/>
      <rect style="fill:#4d4d4d;stroke-width:0.264583" id="rect1274" width="0.26458332" height="1.5875001" x="3.9687498" y="4.2333336"/>
      <rect style="fill:#4d4d4d;stroke-width:0.264583" id="rect1275" width="0.39687514" height="1.0583339" x="4.1010413" y="4.7624998"/>
      <rect style="fill:#999999;stroke-width:0.264583" id="rect1276" width="0.52916712" height="0.26458335" x="3.4395833" y="4.4979172"/>
      <rect style="fill:#999999;stroke-width:0.264583" id="rect1277" width="0.26458332" height="0.26458332" x="3.7041667" y="4.7624998"/>
      <rect style="fill:#000000;stroke-width:0.264583" id="rect1278" width="0.529167" height="0.26458332" x="2.6458333" y="4.2333331"/>
      <rect style="fill:#999999;stroke-width:0.264583" id="rect1279" width="0.79374999" height="1.5874995" x="2.3812499" y="4.4979172"/>
      <rect style="fill:#999999;stroke-width:0.264583" id="rect1280" width="0.529167" height="0.26458332" x="2.6458333" y="6.0854168"/>
      <rect style="fill:#999999;stroke-width:0.264583" id="rect1281" width="0.26458335" height="1.3229167" x="3.1750002" y="4.7625003"/>
      <rect style="fill:#999999;stroke-width:0.264583" id="rect1282" width="0.26458293" height="0.79374999" x="3.4395835" y="5.0270834"/>
      <rect style="fill:#4d4d4d;stroke-width:0.264583" id="rect1283" width="1.0583333" height="0.26458278" x="2.3812499" y="4.7625003"/>
      <rect style="fill:#4d4d4d;stroke-width:0.264583" id="rect1284" width="1.3229166" height="0.26458398" x="2.3812499" y="5.2916665"/>
      <rect style="fill:#4d4d4d;stroke-width:0.264583" id="rect1285" width="1.0583338" height="0.26458335" x="2.3812499" y="5.8208337"/>
      <rect style="fill:#4d4d4d;stroke-width:0.264583" id="rect1286" width="0.21694963" height="0.26458275" x="3.7041669" y="5.8208337"/>
      <rect style="fill:#000000;stroke-width:0.264583" id="rect1287" width="1.0583339" height="0.26458332" x="3.4395833" y="6.0854168"/>
      <rect style="fill:#4d4d4d;stroke-width:0.264583" id="rect1288" width="0.26458287" height="0.26458254" x="3.9687502" y="6.8791671"/>
      <rect style="fill:#4d4d4d;stroke-width:0.264583" id="rect1289" width="0.13229156" height="0.26458344" x="3.8364582" y="5.8208332"/>
      <rect style="fill:#000000;stroke-width:0.264583" id="rect1290" width="0.26458377" height="0.5291667" x="3.7041667" y="6.3500004"/>
      <rect style="fill:#000000;stroke-width:0.264583" id="rect1291" width="0.26458332" height="0.52916664" x="4.2333331" y="6.3499999"/>
      <rect style="fill:#999999;stroke-width:0.264583" id="rect1292" width="0.26458332" height="0.52916664" x="3.9687498" y="6.3499999"/>
      <rect style="fill:#999999;stroke-width:0.264583" id="rect1293" width="0.52916664" height="0.26458335" x="3.175" y="6.3500004"/>
      <rect style="fill:#999999;stroke-width:0.264583" id="rect1294" width="0.26458335" height="0.2645826" x="4.4979172" y="6.3500004"/>
      <rect style="fill:#333333;stroke-width:0.264583" id="rect1295" width="0.26458332" height="1.0583334" x="2.1166666" y="6.0854173"/>
      <rect style="fill:#333333;stroke-width:0.264583" id="rect1296" width="0.26458305" height="0.26458251" x="2.3812501" y="7.1437502"/>
      <rect style="fill:#333333;stroke-width:0.264583" id="rect1297" width="0.26458302" height="0.26458248" x="2.6458335" y="7.4083338"/>
      <rect style="fill:#333333;stroke-width:0.264583" id="rect1298" width="0.26458299" height="0.5291658" x="2.9104168" y="7.6729169"/>
      <rect style="fill:#333333;stroke-width:0.264583" id="rect1299" width="0.13332593" height="0.13229203" x="3.4395833" y="7.9375005"/>
      <rect style="fill:#333333;stroke-width:0.264583" id="rect1300" width="1.0583329" height="0.26458243" x="3.1750002" y="7.9375005"/>
      <rect style="fill:#808080;stroke-width:0.264583" id="rect1301" width="0.79374999" height="0.26458332" x="3.175" y="7.6729164"/>
      <rect style="fill:#808080;stroke-width:0.264583" id="rect1302" width="0.26458311" height="0.79375017" x="2.3812501" y="6.3500004"/>
      <rect style="fill:#808080;stroke-width:0.264583" id="rect1303" width="0.26458305" height="0.13229111" x="2.6458335" y="7.276042"/>
      <rect style="fill:#808080;stroke-width:0.264583" id="rect1304" width="0.26458299" height="0.26458332" x="2.9104168" y="7.4083333"/>
      <rect style="fill:#808080;stroke-width:0.264583" id="rect1305" width="0.063282683" height="0.13229167" x="3.5718749" y="7.1437497"/>
      <rect style="fill:#808080;stroke-width:0.264583" id="rect1306" width="0.26458296" height="0.26458335" x="3.1750002" y="7.4083338"/>
      <rect style="fill:#cccccc;stroke-width:0.264583" id="rect1307" width="0.26458335" height="0.26458332" x="3.4395835" y="7.1437497"/>
      <rect style="fill:#cccccc;stroke-width:0.264583" id="rect1308" width="0.52916664" height="0.52916592" x="2.6458333" y="6.614584"/>
      <rect style="fill:#cccccc;stroke-width:0.264583" id="rect1309" width="1.1906251" height="0.2645832" x="2.6458333" y="7.1437502"/>
      <rect style="fill:#cccccc;stroke-width:0.264583" id="rect1310" width="0.52916706" height="0.26458412" x="3.175" y="6.8791666"/>
      <rect style="fill:#cccccc;stroke-width:0.264583" id="rect1311" width="0.52916622" height="0.26458332" x="3.4395835" y="7.4083333"/>
      <rect style="fill:#cccccc;stroke-width:0.264583" id="rect1312" width="0.2645829" height="0.26458335" x="3.7041669" y="7.1437502"/>
      <rect style="fill:#999999;stroke-width:0.264583" id="rect1313" width="0.26665187" height="0.52916747" x="2.6458333" y="6.8791671"/>
      <rect style="fill:#999999;stroke-width:0.264583" id="rect1314" width="0.26458332" height="0.26458251" x="2.9104166" y="7.1437502"/>
      <rect style="fill:#999999;stroke-width:0.264583" id="rect1315" width="0.26251513" height="0.26458326" x="2.6479015" y="7.6729169"/>
      <rect style="fill:#999999;stroke-width:0.264583" id="rect1316" width="0.26458305" height="0.26458418" x="2.3812501" y="7.4083333"/>
      <rect style="fill:#999999;stroke-width:0.264583" id="rect1317" width="0.26180813" height="0.26458353" x="2.1166666" y="7.1437497"/>
      <rect style="fill:#000000;stroke-width:0.264583" id="rect1318" width="0.26458311" height="0.26458335" x="1.8520834" y="7.1437502"/>
      <rect style="fill:#000000;stroke-width:0.264583" id="rect1319" width="0.26458311" height="0.39687529" x="2.1166668" y="7.276042"/>
      <rect style="fill:#000000;stroke-width:0.264583" id="rect1320" width="0.26458332" height="0.26458335" x="2.3812499" y="7.6729169"/>
      <g id="g1491" style="display:inline">
        <g id="g1440" style="display:inline">
          <g id="g1404" style="display:inline">
            <rect style="fill:#666666;stroke-width:0.264583" id="rect1375" width="0.26458251" height="0.26458278" x="7.1437502" y="4.7625003"/>
            <rect style="fill:#666666;stroke-width:0.264583" id="rect1376" width="0.26458412" height="0.26458392" x="6.8791666" y="5.0270834"/>
            <rect style="fill:#666666;stroke-width:0.264583" id="rect1377" width="0.26458335" height="0.79375005" x="5.8208337" y="3.1750002"/>
            <rect style="fill:#666666;stroke-width:0.264583" id="rect1378" width="0.26458335" height="0.79375005" x="6.0854173" y="3.9687502"/>
            <rect style="fill:#666666;stroke-width:0.264583" id="rect1379" width="0.26458335" height="0.79374945" x="6.3500004" y="4.7625003"/>
            <rect style="fill:#666666;stroke-width:0.264583" id="rect1380" width="0.26458332" height="0.52916604" x="6.614583" y="5.5562506"/>
            <rect style="fill:#808080;stroke-width:0.264583" id="rect1381" width="0.79374903" height="0.26458266" x="7.9375005" y="5.8208337"/>
            <rect style="fill:#b3b3b3;stroke-width:0.264583" id="rect1382" width="0.26458332" height="1.0583329" x="6.0854168" y="2.9104168"/>
            <rect style="fill:#b3b3b3;stroke-width:0.264583" id="rect1383" width="0.2645826" height="0.79374951" x="6.3500004" y="3.9687502"/>
            <rect style="fill:#b3b3b3;stroke-width:0.264583" id="rect1384" width="0.26458332" height="0.79374999" x="6.614583" y="4.7624998"/>
            <rect style="fill:#b3b3b3;stroke-width:0.264583" id="rect1385" width="1.0583324" height="0.26458266" x="6.8791671" y="5.8208337"/>
            <rect style="fill:#666666;stroke-width:0.264583" id="rect1386" width="0.26458335" height="0.79375005" x="7.9375005" y="5.0270839"/>
            <rect style="fill:#b3b3b3;stroke-width:0.264583" id="rect1387" width="1.0583333" height="0.26458281" x="6.8791666" y="4.4979172"/>
            <rect style="fill:#b3b3b3;stroke-width:0.264583" id="rect1388" width="0.26458332" height="0.26458389" x="7.9374995" y="4.7624998"/>
            <rect style="fill:#4d4d4d;stroke-width:0.264583" id="rect1389" width="1.0583345" height="0.26458356" x="6.8791666" y="4.7624998"/>
            <rect style="fill:#4d4d4d;stroke-width:0.264583" id="rect1390" width="0.26458254" height="0.79375005" x="6.8791671" y="5.0270839"/>
            <rect style="fill:#000000;stroke-width:0.264583" id="rect1391" width="0.26458415" height="0.79375005" x="7.1437497" y="5.0270839"/>
            <rect style="fill:#333333;stroke-width:0.264583" id="rect1392" width="0.26458246" height="0.79375064" x="7.6729169" y="5.0270834"/>
            <rect style="fill:#ff0000;stroke-width:0.264583" id="rect1393" width="0.26458418" height="0.79375005" x="7.4083333" y="5.0270839"/>
            <rect style="fill:#808080;stroke-width:0.264583" id="rect1394" width="1.5874993" height="0.26458383" x="6.614584" y="4.2333331"/>
            <rect style="fill:#808080;stroke-width:0.264583" id="rect1395" width="0.26458257" height="0.26458332" x="6.614584" y="4.4979167"/>
            <rect style="fill:#808080;stroke-width:0.264583" id="rect1396" width="0.26458332" height="0.26458281" x="7.9374995" y="4.4979172"/>
            <rect style="fill:#333333;stroke-width:0.264583" id="rect1397" width="0.26458332" height="0.79374945" x="8.2020826" y="5.0270839"/>
            <rect style="fill:#333333;stroke-width:0.264583" id="rect1398" width="1.5875008" height="0.26458332" x="6.614583" y="3.9687498"/>
            <rect style="fill:#333333;stroke-width:0.264583" id="rect1399" width="0.26458332" height="1.322917" x="6.3499999" y="2.6458333"/>
            <rect style="fill:#333333;stroke-width:0.264583" id="rect1400" width="0.57446843" height="0.26458326" x="6.5692811" y="3.7041669"/>
            <rect style="fill:#333333;stroke-width:0.264583" id="rect1401" width="0.26458332" height="0.52916706" x="5.5562501" y="3.175"/>
            <rect style="fill:#333333;stroke-width:0.264583" id="rect1402" width="1.7197915" height="0.26458398" x="7.2760415" y="6.0854168"/>
            <g id="g1403">
              <rect style="fill:#333333;stroke-width:0.264583" id="rect1403" width="1.7197915" height="0.26458398" x="7.2760415" y="6.0854168"/>
            </g>
          </g>
          <rect style="fill:#666666;stroke-width:0.264583" id="rect1404" width="0.26458332" height="0.26458299" x="6.614583" y="2.9104168"/>
          <rect style="fill:#666666;stroke-width:0.264583" id="rect1405" width="0.26180777" height="0.26458329" x="6.8791671" y="2.6458335"/>
          <rect style="fill:#666666;stroke-width:0.264583" id="rect1406" width="0.26458251" height="0.26458305" x="7.1437502" y="2.3812501"/>
          <rect style="fill:#666666;stroke-width:0.264583" id="rect1407" width="0.52916664" height="0.26458308" x="7.4083333" y="2.1166668"/>
          <rect style="fill:#666666;stroke-width:0.264583" id="rect1408" width="0.26458243" height="0.26458332" x="7.9375005" y="2.3812499"/>
          <rect style="fill:#666666;stroke-width:0.264583" id="rect1409" width="0.26458335" height="2.3812501" x="8.2020836" y="2.6458335"/>
          <rect style="fill:#000000;stroke-width:0.264583" id="rect1410" width="0.2645843" height="2.3812497" x="8.4666662" y="2.6458335"/>
          <rect style="fill:#000000;stroke-width:0.264583" id="rect1411" width="0.1309038" height="2.459399e-07" x="8.2020836" y="2.6458333"/>
          <rect style="fill:#000000;stroke-width:0.264583" id="rect1412" width="0.2645824" height="0.26458305" x="8.2020836" y="2.3812501"/>
          <rect style="fill:#000000;stroke-width:0.264583" id="rect1413" width="0.26458424" height="0.26458308" x="7.9374995" y="2.1166668"/>
          <rect style="fill:#000000;stroke-width:0.264583" id="rect1414" width="0.52639091" height="0.26458353" x="7.4083338" y="1.8520833"/>
          <rect style="fill:#000000;stroke-width:0.264583" id="rect1415" width="0.26458251" height="0.26458308" x="7.1437502" y="2.1166668"/>
          <rect style="fill:#000000;stroke-width:0.264583" id="rect1416" width="0.26458332" height="0.26458335" x="6.8791666" y="2.3812501"/>
          <rect style="fill:#000000;stroke-width:0.264583" id="rect1417" width="0.26458332" height="0.26458302" x="6.614583" y="2.6458335"/>
          <rect style="fill:#000000;stroke-width:0.264583" id="rect1418" width="0.2645826" height="0.26458302" x="6.3500004" y="2.6458335"/>
          <rect style="fill:#333333;stroke-width:0.264583" id="rect1419" width="0.26458243" height="1.3229163" x="7.9375005" y="2.6458335"/>
          <rect style="fill:#333333;stroke-width:0.264583" id="rect1420" width="0.52916694" height="0.26458329" x="7.4083333" y="2.3812501"/>
          <rect style="fill:#333333;stroke-width:0.264583" id="rect1421" width="0.26735809" height="0.26458308" x="7.140975" y="2.6458335"/>
          <rect style="fill:#333333;stroke-width:0.264583" id="rect1422" width="0.26458365" height="0.13229162" x="6.8791661" y="3.0427084"/>
          <rect style="fill:#333333;stroke-width:0.264583" id="rect1423" width="0.26458254" height="0.26458332" x="6.8791671" y="2.9104166"/>
          <rect style="fill:#333333;stroke-width:0.264583" id="rect1424" width="0.26458257" height="0.52916628" x="6.614584" y="3.1750002"/>
          <rect style="fill:#1a1a1a;stroke-width:0.264583" id="rect1425" width="0.5291658" height="0.26458302" x="7.4083338" y="2.6458335"/>
          <rect style="fill:#1a1a1a;stroke-width:0.264583" id="rect1426" width="0.26458335" height="0.26458335" x="7.1437502" y="2.9104168"/>
          <rect style="fill:#1a1a1a;stroke-width:0.264583" id="rect1427" width="0.26458254" height="0.26458332" x="6.8791671" y="3.175"/>
          <rect style="fill:#1a1a1a;stroke-width:0.264583" id="rect1428" width="0.26180753" height="0.79374999" x="7.6729169" y="2.9104168"/>
          <rect style="fill:#cccccc;stroke-width:0.264583" id="rect1429" width="0.26458251" height="0.52916628" x="7.1437502" y="3.1750002"/>
          <rect style="fill:#cccccc;stroke-width:0.264583" id="rect1430" width="0.26458335" height="0.2645829" x="7.4083338" y="3.7041669"/>
          <rect style="fill:#666666;stroke-width:0.264583" id="rect1431" width="0.26458248" height="0.79374963" x="7.4083338" y="2.9104168"/>
          <rect style="fill:#666666;stroke-width:0.264583" id="rect1432" width="0.26458335" height="0.52916628" x="7.1437502" y="3.1750002"/>
          <rect style="fill:#666666;stroke-width:0.264583" id="rect1433" width="0.13125706" height="0.26458299" x="7.5416594" y="3.7041669"/>
          <rect style="fill:#666666;stroke-width:0.264583" id="rect1434" width="0.13332626" height="0.26458466" x="7.4083333" y="3.7041667"/>
          <rect style="fill:#333333;stroke-width:0.264583" id="rect1435" width="0.52916735" height="0.26458293" x="5.8208332" y="3.4395835"/>
          <rect style="fill:#333333;stroke-width:0.264583" id="rect1436" width="0.26458332" height="0.26458368" x="6.0854168" y="2.9104166"/>
          <rect style="fill:#333333;stroke-width:0.264583" id="rect1437" width="0.264584" height="0.26458335" x="5.8208332" y="3.1750002"/>
          <rect style="fill:#333333;stroke-width:0.264583" id="rect1438" width="1.0555581" height="0.264584" x="7.4083338" y="4.2333331"/>
          <rect style="fill:#333333;stroke-width:0.264583" id="rect1439" width="0.26458412" height="0.66145813" x="8.2020826" y="4.4979172"/>
          <rect style="fill:#333333;stroke-width:0.264583" id="rect1440" width="1.8750002e-07" height="1.7439066" x="9.5250006" y="1.9602603"/>
        </g>
        <rect style="fill:#000000;stroke-width:0.264583" id="rect1441" width="0.26458332" height="0.26458257" x="5.2916665" y="6.614584"/>
        <rect style="fill:#000000;stroke-width:0.264583" id="rect1442" width="0.5291667" height="0.26458257" x="7.1437502" y="6.614584"/>
        <rect style="fill:#4d4d4d;stroke-width:0.264583" id="rect1443" width="2.3812506" height="0.26458335" x="5.0270834" y="6.0854173"/>
        <rect style="fill:#333333;stroke-width:0.264583" id="rect1444" width="0.26458332" height="0.26458406" x="4.7624998" y="6.3499999"/>
        <rect style="fill:#333333;stroke-width:0.264583" id="rect1445" width="0.2645832" height="0.26458248" x="4.4979172" y="6.614584"/>
        <rect style="fill:#333333;stroke-width:0.264583" id="rect1446" width="0.26458335" height="0.5291667" x="4.7625003" y="6.8791671"/>
        <rect style="fill:#333333;stroke-width:0.264583" id="rect1447" width="0.26458275" height="0.52916664" x="5.0270839" y="7.4083333"/>
        <rect style="fill:#333333;stroke-width:0.264583" id="rect1448" width="0.52916604" height="0.26458332" x="5.291667" y="7.9374995"/>
        <rect style="fill:#333333;stroke-width:0.264583" id="rect1449" width="1.5875001" height="0.26458427" x="5.8208337" y="8.2020826"/>
        <rect style="fill:#1a1a1a;stroke-width:0.264583" id="rect1450" width="0.26458278" height="0.26458332" x="4.7625003" y="6.614583"/>
        <rect style="fill:#1a1a1a;stroke-width:0.264583" id="rect1451" width="0.26458275" height="0.26458335" x="5.0270839" y="7.1437502"/>
        <rect style="fill:#1a1a1a;stroke-width:0.264583" id="rect1452" width="0.52916729" height="0.26458335" x="5.2916665" y="7.6729169"/>
        <rect style="fill:#1a1a1a;stroke-width:0.264583" id="rect1453" width="1.8493085" height="0.26458296" x="5.8208332" y="7.9375005"/>
        <rect style="fill:#1a1a1a;stroke-width:0.264583" id="rect1454" width="0.52639091" height="0.2645832" x="7.4083338" y="7.6729169"/>
        <rect style="fill:#1a1a1a;stroke-width:0.264583" id="rect1455" width="0.26180866" height="0.26458296" x="7.9374995" y="7.4083338"/>
        <rect style="fill:#1a1a1a;stroke-width:0.264583" id="rect1456" width="0.26458332" height="0.79374921" x="8.4666662" y="6.3500004"/>
        <rect style="fill:#cccccc;stroke-width:0.264583" id="rect1457" width="0.26458332" height="0.26458335" x="8.2020826" y="7.1437502"/>
        <rect style="fill:#cccccc;stroke-width:0.264583" id="rect1458" width="0.79375005" height="0.26458251" x="6.8791671" y="7.1437502"/>
        <rect style="fill:#cccccc;stroke-width:0.264583" id="rect1459" width="0.79374927" height="0.26458332" x="6.0854173" y="6.8791666"/>
        <rect style="fill:#cccccc;stroke-width:0.264583" id="rect1460" width="1.3229175" height="0.26458335" x="5.8208332" y="6.614584"/>
        <rect style="fill:none;stroke-width:0.264583" id="rect1461" width="3.4395826" height="0.26458335" x="5.0270839" y="6.3500004"/>
        <rect style="fill:#cccccc;stroke-width:0.264583" id="rect1462" width="0.26458338" height="0.33014572" x="5.5562501" y="6.8791666"/>
        <rect style="fill:#cccccc;stroke-width:0.264583" id="rect1463" width="1.3229159" height="0.26458335" x="6.8791671" y="7.1437502"/>
        <rect style="fill:#cccccc;stroke-width:0.264583" id="rect1464" width="1.0583333" height="0.26458332" x="7.4083333" y="6.8791666"/>
        <rect style="fill:#cccccc;stroke-width:0.264583" id="rect1465" width="0.79374909" height="0.26458335" x="7.6729169" y="6.614584"/>
        <rect style="fill:#cccccc;stroke-width:0.264583" id="rect1466" width="0.26458392" height="0.52916664" x="5.0270834" y="6.614583"/>
        <rect style="fill:#cccccc;stroke-width:0.264583" id="rect1467" width="2.6458325" height="0.26458248" x="5.291667" y="7.4083338"/>
        <rect style="fill:#cccccc;stroke-width:0.264583" id="rect1468" width="0.5291667" height="0.66145819" x="5.2916665" y="6.8791671"/>
        <rect style="fill:#cccccc;stroke-width:0.264583" id="rect1469" width="0.26458332" height="0.26458335" x="5.8208332" y="7.1437502"/>
        <rect style="fill:#cccccc;stroke-width:0.264583" id="rect1470" width="1.5874993" height="0.26458246" x="5.8208337" y="7.6729169"/>
        <rect style="fill:none;stroke-width:0.264583" id="rect1471" width="1.3229172" height="1.8520827" x="4.2333331" y="5.5562506"/>
        <rect style="fill:none;stroke-width:0.264583" id="rect1472" width="1.8520833" height="2.2489583" x="4.4979167" y="5.4239583"/>
        <rect style="fill:#333333;stroke-width:0.264583" id="rect1473" width="0.26458335" height="0.26458335" x="5.8208337" y="4.7625003"/>
        <rect style="fill:#333333;stroke-width:0.264583" id="rect1474" width="0.26458332" height="0.26458275" x="5.5562501" y="5.0270839"/>
        <rect style="fill:#333333;stroke-width:0.264583" id="rect1475" width="0.264584" height="0.79374933" x="5.5562501" y="5.291667"/>
        <rect style="fill:#b3b3b3;stroke-width:0.264583" id="rect1476" width="0.264584" height="1.0583327" x="5.8208332" y="5.0270839"/>
        <rect style="fill:#e6e6e6;stroke-width:0.264583" id="rect1477" width="0.2645826" height="0.52916604" x="6.3500004" y="5.5562506"/>
        <rect style="fill:#e6e6e6;stroke-width:0.264583" id="rect1478" width="0.26458335" height="1.3229167" x="6.0854173" y="4.7625003"/>
        <rect style="fill:#e6e6e6;stroke-width:0.264583" id="rect1479" width="0.79375005" height="0.79375005" x="5.0270839" y="7.1437502"/>
        <rect style="fill:#e6e6e6;stroke-width:0.264583" id="rect1480" width="0.26458356" height="0.66145903" x="4.7624998" y="6.8791666"/>
        <rect style="fill:#333333;stroke-width:0.264583" id="rect1481" width="0.26458332" height="0.26458254" x="4.2333331" y="6.8791671"/>
        <rect style="fill:#333333;stroke-width:0.264583" id="rect1482" width="0.26458332" height="0.79375088" x="3.9687498" y="7.1437497"/>
        <rect style="fill:#333333;stroke-width:0.264583" id="rect1483" width="0.26251441" height="0.52916652" x="4.2354016" y="7.9375005"/>
        <rect style="fill:#cccccc;stroke-width:0.264583" id="rect1484" width="1.0583334" height="0.6614579" x="4.2333331" y="7.2760415"/>
        <rect style="fill:#cccccc;stroke-width:0.264583" id="rect1485" width="0.52916723" height="0.52916586" x="4.4979167" y="6.8791671"/>
        <rect style="fill:#cccccc;stroke-width:0.264583" id="rect1486" width="1.0583333" height="0.26458415" x="4.2333331" y="7.1437497"/>
        <rect style="fill:#cccccc;stroke-width:0.264583" id="rect1487" width="0.79374999" height="0.26458243" x="4.4979167" y="7.9375005"/>
        <rect style="fill:#cccccc;stroke-width:0.264583" id="rect1488" width="1.6078697" height="0.26458272" x="5.0067134" y="6.3500004"/>
        <rect style="fill:#cccccc;stroke-width:0.264583" id="rect1489" width="0.79374999" height="0.52916664" x="7.6729164" y="6.3499999"/>
        <rect style="fill:#808080;stroke-width:0.264583" id="rect1490" width="1.3229172" height="0.26458332" x="4.4979167" y="8.2020826"/>
        <rect style="fill:#cccccc;stroke-width:0.264583" id="rect1491" width="0.52916729" height="0.79374999" x="5.2916665" y="7.1437497"/>
      </g>
    </g>
    <rect style="display:inline;fill:#000000;stroke-width:0.264583" id="rect1321" width="0.26458332" height="0.26458415" x="2.1166666" y="7.1437497"/>
  </g>
  </svg>