<!-- Created with Inkscape (http://www.inkscape.org/) --><svg xmlns:inkscape="http://www.inkscape.org/namespaces/inkscape" xmlns:sodipodi="http://sodipodi.sourceforge.net/DTD/sodipodi-0.dtd" xmlns:xlink="http://www.w3.org/1999/xlink" xmlns="http://www.w3.org/2000/svg" xmlns:svg="http://www.w3.org/2000/svg" width="64" height="64" viewBox="0 0 16.933333 16.933333" version="1.1" id="svg1" inkscape:version="1.3.2 (091e20e, 2023-11-25)" sodipodi:docname="dog&#21407;&#22411;open.tar">
  <sodipodi:namedview id="namedview1" pagecolor="#ffffff" bordercolor="#111111" borderopacity="1" inkscape:showpageshadow="0" inkscape:pageopacity="0" inkscape:pagecheckerboard="1" inkscape:deskcolor="#d1d1d1" inkscape:document-units="mm" showgrid="true" inkscape:zoom="5.9229424" inkscape:cx="28.955203" inkscape:cy="18.065345" inkscape:window-width="1328" inkscape:window-height="771" inkscape:window-x="0" inkscape:window-y="25" inkscape:window-maximized="0" inkscape:current-layer="layer75" showguides="true">
    <inkscape:grid id="grid1" units="px" originx="0" originy="0" spacingx="0.26458334" spacingy="0.26458334" empcolor="#0099e5" empopacity="0.30196078" color="#0099e5" opacity="0.14901961" empspacing="5" dotted="false" gridanglex="30" gridanglez="30" visible="true" enabled="true"/>
  </sodipodi:namedview>
  <defs id="defs1"/>
  <g inkscape:groupmode="layer" id="layer78" inkscape:label="&#26001;&#39532;&#23614;&#24052;" style="display:inline" sodipodi:insensitive="true">
    <rect style="fill:#ffffff;stroke-width:0.264583" id="rect2141" width="0.26458335" height="0.5291667" x="11.906251" y="6.614584"/>
    <rect style="fill:#ffffff;stroke-width:0.264583" id="rect2142" width="0.26458335" height="0.5291667" x="12.435417" y="6.8791671"/>
    <rect style="fill:#ffffff;stroke-width:0.264583" id="rect2143" width="0.26458335" height="0.5291667" x="11.641667" y="7.1437502"/>
    <rect style="fill:#ffffff;stroke-width:0.264583" id="rect2144" width="0.5291667" height="0.26458335" x="11.906251" y="7.6729169"/>
    <rect style="fill:#ffffff;stroke-width:0.264583" id="rect2145" width="0.26458335" height="0.26458335" x="11.377084" y="6.8791671"/>
    <rect style="fill:#ffffff;stroke-width:0.264583" id="rect2146" width="0.26458335" height="0.5291667" x="11.112501" y="7.1437502"/>
    <rect style="fill:#ffffff;stroke-width:0.264583" id="rect2147" width="0.26458335" height="0.26458335" x="11.377084" y="7.6729169"/>
    <rect style="fill:#ffffff;stroke-width:0.264583" id="rect2148" width="0.26458335" height="0.26458335" x="11.641667" y="7.9375005"/>
    <rect style="fill:#000000;stroke-width:0.264583" id="rect2149" width="0.26458335" height="1.0583334" x="12.170835" y="6.614584"/>
    <rect style="fill:#000000;stroke-width:0.264583" id="rect2150" width="0.26458335" height="0.26458335" x="12.435417" y="7.4083338"/>
    <rect style="fill:#000000;stroke-width:0.264583" id="rect2151" width="0.26458335" height="0.5291667" x="11.906251" y="7.1437502"/>
    <rect style="fill:#000000;stroke-width:0.264583" id="rect2152" width="0.26458335" height="0.5291667" x="11.377084" y="7.1437502"/>
    <rect style="fill:#000000;stroke-width:0.264583" id="rect2153" width="0.26458335" height="0.26458335" x="11.641667" y="7.6729169"/>
    <rect style="fill:#000000;stroke-width:0.264583" id="rect2154" width="0.26458335" height="0.26458335" x="11.906251" y="7.9375005"/>
    <rect style="fill:#000000;stroke-width:0.264583" id="rect2155" width="0.26458335" height="0.26458335" x="11.377084" y="6.614584"/>
    <rect style="fill:#000000;stroke-width:0.264583" id="rect2156" width="0.26458335" height="0.26458335" x="11.112501" y="6.8791671"/>
    <rect style="fill:#000000;stroke-width:0.264583" id="rect2157" width="0.26458335" height="0.5291667" x="10.847918" y="7.1437502"/>
    <rect style="fill:#000000;stroke-width:0.264583" id="rect2158" width="0.20710818" height="0.26458374" x="10.847918" y="7.6729164"/>
    <rect style="fill:#000000;stroke-width:0.264583" id="rect2159" width="0.26458335" height="0.26458335" x="11.641667" y="6.3500004"/>
    <rect style="fill:#000000;stroke-width:0.264583" id="rect2160" width="0.5291667" height="0.26458335" x="11.112501" y="6.0854173"/>
    <rect style="fill:#000000;stroke-width:0.264583" id="rect2161" width="0.5291667" height="0.26458335" x="10.583334" y="6.3500004"/>
    <rect style="fill:#000000;stroke-width:0.264583" id="rect2162" width="0.26458219" height="0.52916634" x="10.318751" y="6.614584"/>
    <rect style="fill:#000000;stroke-width:0.264583" id="rect2163" width="0.26458335" height="0.5291667" x="10.054168" y="6.8791671"/>
    <rect style="fill:#000000;stroke-width:0.264583" id="rect2164" width="0.26458335" height="0.26458335" x="11.906251" y="6.0854173"/>
    <rect style="fill:#000000;stroke-width:0.264583" id="rect2165" width="0.26458335" height="0.5291667" x="11.641667" y="5.5562506"/>
    <rect style="fill:#000000;stroke-width:0.264583" id="rect2166" width="0.26458335" height="0.5291667" x="11.377084" y="5.291667"/>
    <rect style="fill:#000000;stroke-width:0.264583" id="rect2167" width="0.66284704" height="0.26458392" x="10.714237" y="5.2916665"/>
    <rect style="fill:#000000;stroke-width:0.264583" id="rect2168" width="0.13090298" height="0.26458275" x="10.583334" y="5.291667"/>
    <rect style="fill:#000000;stroke-width:0.264583" id="rect2169" width="1.0583334" height="0.26458335" x="10.318751" y="5.0270839"/>
    <rect style="fill:#000000;stroke-width:0.264583" id="rect2170" width="0.5291667" height="0.26458335" x="11.377084" y="4.2333336"/>
    <rect style="fill:#000000;stroke-width:0.264583" id="rect2171" width="0.5291667" height="0.26458335" x="11.641667" y="4.4979172"/>
    <rect style="fill:#000000;stroke-width:0.264583" id="rect2172" width="0.5291667" height="0.26458335" x="11.906251" y="4.7625003"/>
    <rect style="fill:#000000;stroke-width:0.264583" id="rect2173" width="0.5291667" height="0.26458335" x="12.170835" y="5.0270839"/>
    <rect style="fill:#000000;stroke-width:0.264583" id="rect2174" width="0.5291667" height="0.5291667" x="12.435417" y="5.291667"/>
    <rect style="fill:#000000;stroke-width:0.264583" id="rect2175" width="0.26458335" height="0.5291667" x="12.435417" y="5.8208337"/>
    <rect style="fill:#000000;stroke-width:0.264583" id="rect2176" width="0.5291667" height="0.26458335" x="12.435417" y="4.2333336"/>
    <rect style="fill:#000000;stroke-width:0.264583" id="rect2177" width="0.5291667" height="0.26458335" x="12.700001" y="4.4979172"/>
    <rect style="fill:#000000;stroke-width:0.264583" id="rect2178" width="0.5291667" height="0.26458335" x="12.964584" y="4.7625003"/>
    <rect style="fill:#000000;stroke-width:0.264583" id="rect2179" width="0.26458189" height="0.26458275" x="13.229168" y="5.0270839"/>
    <rect style="fill:#000000;stroke-width:0.264583" id="rect2180" width="0.26458335" height="0.5291667" x="13.493751" y="5.291667"/>
    <rect style="fill:#000000;stroke-width:0.264583" id="rect2181" width="0.26458335" height="0.26458335" x="13.229168" y="5.8208337"/>
    <rect style="fill:#000000;stroke-width:0.264583" id="rect2182" width="0.26735952" height="0.79374993" x="12.961807" y="6.0854173"/>
    <rect style="fill:#000000;stroke-width:0.264583" id="rect2183" width="0.26458335" height="0.5291667" x="14.552084" y="5.8208337"/>
    <rect style="fill:#000000;stroke-width:0.264583" id="rect2184" width="0.52916497" height="0.19936971" x="14.022918" y="6.0854173"/>
    <rect style="fill:#000000;stroke-width:0.264583" id="rect2185" width="0.7937488" height="0.13229191" x="14.022918" y="6.2177086"/>
    <rect style="fill:#000000;stroke-width:0.264583" id="rect2186" width="0.5291667" height="0.26458335" x="13.758334" y="6.3500004"/>
    <rect style="fill:#000000;stroke-width:0.264583" id="rect2187" width="0.66145933" height="0.26458371" x="13.096875" y="6.614583"/>
    <rect style="fill:#000000;stroke-width:0.264583" id="rect2188" width="1.5875001" height="0.26458335" x="12.964584" y="7.1437502"/>
    <rect style="fill:#000000;stroke-width:0.264583" id="rect2189" width="1.0583334" height="0.26458335" x="13.758334" y="7.4083338"/>
    <rect style="fill:#000000;stroke-width:0.264583" id="rect2190" width="0.5291667" height="0.26458335" x="12.964584" y="7.6729169"/>
    <rect style="fill:#000000;stroke-width:0.264583" id="rect2191" width="0.5291667" height="0.5291667" x="13.229168" y="7.9375005"/>
    <rect style="fill:#000000;stroke-width:0.264583" id="rect2192" width="0.79375005" height="0.26458335" x="13.493751" y="8.4666672"/>
    <rect style="fill:#000000;stroke-width:0.264583" id="rect2193" width="0.79375005" height="0.26458335" x="13.758334" y="8.7312508"/>
    <rect style="fill:#000000;stroke-width:0.264583" id="rect2194" width="0.26458335" height="0.26458335" x="12.700001" y="7.6729169"/>
    <rect style="fill:#000000;stroke-width:0.264583" id="rect2195" width="0.52639019" height="0.26458296" x="12.170835" y="8.2020836"/>
    <rect style="fill:#000000;stroke-width:0.264583" id="rect2196" width="0.5291667" height="0.26458335" x="12.435417" y="8.4666672"/>
    <rect style="fill:#000000;stroke-width:0.264583" id="rect2197" width="0.5291667" height="0.26458335" x="12.700001" y="8.7312508"/>
    <rect style="fill:#000000;stroke-width:0.264583" id="rect2198" width="0.53194302" height="0.264584" x="12.961807" y="8.9958334"/>
    <rect style="fill:#000000;stroke-width:0.264583" id="rect2199" width="0.5291667" height="0.26458335" x="13.229168" y="9.2604179"/>
    <rect style="fill:#ffffff;stroke-width:0.264583" id="rect2200" width="0.26735938" height="0.52916712" x="11.109724" y="7.6729164"/>
    <rect style="fill:#ffffff;stroke-width:0.264583" id="rect2201" width="0.26458335" height="0.26458335" x="11.377084" y="7.9375005"/>
    <rect style="fill:#ffffff;stroke-width:0.264583" id="rect2202" width="0.5291667" height="0.5291667" x="10.318751" y="7.1437502"/>
    <rect style="fill:#ffffff;stroke-width:0.264583" id="rect2203" width="0.26458335" height="0.26458335" x="10.583334" y="7.6729169"/>
    <rect style="fill:#ffffff;stroke-width:0.264583" id="rect2204" width="0.5291667" height="0.5291667" x="10.583334" y="6.614584"/>
    <rect style="fill:#ffffff;stroke-width:0.264583" id="rect2205" width="0.26458335" height="0.5291667" x="11.112501" y="6.3500004"/>
    <rect style="fill:#ffffff;stroke-width:0.264583" id="rect2206" width="0.26458335" height="0.26458335" x="11.377084" y="6.3500004"/>
    <rect style="fill:#ffffff;stroke-width:0.264583" id="rect2207" width="0.26458335" height="0.26458335" x="11.641667" y="6.0854173"/>
    <rect style="fill:#ffffff;stroke-width:0.264583" id="rect2208" width="0.26458335" height="0.26458335" x="10.318751" y="5.291667"/>
    <rect style="fill:#ffffff;stroke-width:0.264583" id="rect2209" width="1.3229167" height="0.26458335" x="10.054168" y="5.5562506"/>
    <rect style="fill:#ffffff;stroke-width:0.264583" id="rect2210" width="1.5875001" height="0.26458335" x="10.054168" y="5.8208337"/>
    <rect style="fill:#ffffff;stroke-width:0.264583" id="rect2211" width="1.3229167" height="0.26458335" x="9.7895842" y="6.0854173"/>
    <rect style="fill:#ffffff;stroke-width:0.264583" id="rect2212" width="0.66145712" height="0.26458251" x="9.7895842" y="6.3500004"/>
    <rect style="fill:#ffffff;stroke-width:0.264583" id="rect2213" width="0.26458335" height="0.26458335" x="10.054168" y="6.614584"/>
    <rect style="fill:#ffffff;stroke-width:0.264583" id="rect2214" width="0.13229296" height="0.26458251" x="10.451041" y="6.3500004"/>
    <rect style="fill:#000000;stroke-width:0.264583" id="rect2215" width="0.13368009" height="0.52916634" x="10.978821" y="7.6729169"/>
    <rect style="fill:#ffffff;stroke-width:0.264583" id="rect2216" width="0.26180756" height="0.26458398" x="12.170835" y="6.0854168"/>
    <rect style="fill:#ffffff;stroke-width:0.264583" id="rect2217" width="0.79375005" height="0.26458335" x="12.435417" y="7.9375005"/>
    <rect style="fill:#ffffff;stroke-width:0.264583" id="rect2218" width="0.5291667" height="0.26458335" x="12.700001" y="8.2020836"/>
    <rect style="fill:#ffffff;stroke-width:0.264583" id="rect2219" width="0.53194302" height="0.26458317" x="12.961807" y="8.4666672"/>
    <rect style="fill:#ffffff;stroke-width:0.264583" id="rect2220" width="0.79375005" height="0.26458335" x="13.493751" y="8.9958344"/>
    <rect style="fill:#ffffff;stroke-width:0.264583" id="rect2221" width="0.2618084" height="0.33770147" x="13.758333" y="9.1872988"/>
    <rect style="fill:#ffffff;stroke-width:0.264583" id="rect2222" width="0.5291667" height="0.26458335" x="13.229168" y="8.7312508"/>
    <rect style="fill:#ffffff;stroke-width:0.264583" id="rect2223" width="0.79375005" height="0.79375005" x="13.758334" y="7.6729169"/>
    <rect style="fill:#ffffff;stroke-width:0.264583" id="rect2224" width="0.26458335" height="0.5291667" x="13.493751" y="7.4083338"/>
    <rect style="fill:#ffffff;stroke-width:0.264583" id="rect2225" width="0.5291667" height="0.26458335" x="12.964584" y="7.4083338"/>
    <rect style="fill:#ffffff;stroke-width:0.264583" id="rect2226" width="0.5291667" height="0.5291667" x="14.552084" y="6.8791671"/>
    <rect style="fill:#ffffff;stroke-width:0.264583" id="rect2227" width="0.79375005" height="0.5291667" x="13.758334" y="6.614584"/>
    <rect style="fill:#ffffff;stroke-width:0.264583" id="rect2228" width="0.52916938" height="0.46788067" x="14.287498" y="6.3500004"/>
    <rect style="fill:#ffffff;stroke-width:0.264583" id="rect2229" width="0.2645821" height="0.13229217" x="14.552084" y="6.7468748"/>
    <rect style="fill:#ffffff;stroke-width:0.264583" id="rect2230" width="0.79375005" height="0.26458335" x="12.964584" y="6.8791671"/>
    <rect style="fill:#ffffff;stroke-width:0.264583" id="rect2231" width="0.5291667" height="0.5291667" x="13.229168" y="6.0854173"/>
    <rect style="fill:#ffffff;stroke-width:0.264583" id="rect2232" width="0.5291667" height="0.5291667" x="13.493751" y="5.8208337"/>
    <rect style="fill:#ffffff;stroke-width:0.264583" id="rect2233" width="0.26458335" height="1.3229167" x="13.758334" y="4.7625003"/>
    <rect style="fill:#ffffff;stroke-width:0.264583" id="rect2234" width="0.52916867" height="0.79374921" x="14.022916" y="5.291667"/>
    <rect style="fill:#ffffff;stroke-width:0.264583" id="rect2235" width="0.13229398" height="0.26458275" x="14.155207" y="5.0270839"/>
    <rect style="fill:#ffffff;stroke-width:0.264583" id="rect2236" width="0.26458263" height="0.26458311" x="13.890625" y="5.0270834"/>
    <rect style="fill:#ffffff;stroke-width:0.264583" id="rect2237" width="0.26458335" height="1.0583334" x="12.700001" y="5.8208337"/>
    <rect style="fill:#ffffff;stroke-width:0.264583" id="rect2238" width="0.26458335" height="0.26458335" x="12.435417" y="6.3500004"/>
    <rect style="fill:#ffffff;stroke-width:0.264583" id="rect2239" width="0.26458335" height="0.79375005" x="12.964584" y="5.291667"/>
    <rect style="fill:#ffffff;stroke-width:0.264583" id="rect2240" width="0.26458335" height="0.5291667" x="13.493751" y="4.7625003"/>
    <rect style="fill:#ffffff;stroke-width:0.264583" id="rect2241" width="0.26458335" height="0.26458335" x="13.229168" y="4.4979172"/>
    <rect style="fill:#ffffff;stroke-width:0.264583" id="rect2242" width="0.5291667" height="0.26458335" x="11.906251" y="4.2333336"/>
    <rect style="fill:#ffffff;stroke-width:0.264583" id="rect2243" width="0.5291667" height="0.26458335" x="12.170835" y="4.4979172"/>
    <rect style="fill:#ffffff;stroke-width:0.264583" id="rect2244" width="0.5291667" height="0.26458335" x="12.435417" y="4.7625003"/>
    <rect style="fill:#ffffff;stroke-width:0.264583" id="rect2245" width="0.5291667" height="0.26458335" x="12.700001" y="5.0270839"/>
    <rect style="fill:#ffffff;stroke-width:0.264583" id="rect2246" width="0.26458335" height="0.5291667" x="13.229168" y="5.291667"/>
    <rect style="fill:#ffffff;stroke-width:0.264583" id="rect2247" width="0.79375005" height="0.26458335" x="10.847918" y="4.4979172"/>
    <rect style="fill:#ffffff;stroke-width:0.264583" id="rect2248" width="1.3229167" height="0.26458335" x="10.583334" y="4.7625003"/>
    <rect style="fill:#ffffff;stroke-width:0.264583" id="rect2249" width="0.79375005" height="0.26458335" x="11.377084" y="5.0270839"/>
    <rect style="fill:#ffffff;stroke-width:0.264583" id="rect2250" width="0.79374957" height="0.26458299" x="11.641667" y="5.291667"/>
    <rect style="fill:#ffffff;stroke-width:0.264583" id="rect2251" width="0.5291667" height="0.5291667" x="11.906251" y="5.5562506"/>
    <rect style="fill:#b3b3b3;stroke-width:0.264583" id="rect2252" width="0.2645843" height="0.92604208" x="11.1125" y="7.2760415"/>
    <rect style="fill:#b3b3b3;stroke-width:0.264583" id="rect2253" width="0.26458335" height="0.26458335" x="11.377084" y="6.8791671"/>
    <rect style="fill:#b3b3b3;stroke-width:0.264583" id="rect2254" width="0.26458263" height="0.1850265" x="11.112501" y="7.1437502"/>
    <rect style="fill:#b3b3b3;stroke-width:0.264583" id="rect2255" width="0.26458335" height="0.5291667" x="11.641667" y="7.1437502"/>
    <rect style="fill:#b3b3b3;stroke-width:0.264583" id="rect2256" width="0.26458335" height="0.5291667" x="11.906251" y="6.614584"/>
    <rect style="fill:#b3b3b3;stroke-width:0.264583" id="rect2257" width="0.26458335" height="0.5291667" x="11.377084" y="7.6729169"/>
    <rect style="fill:#b3b3b3;stroke-width:0.264583" id="rect2258" width="0.26735973" height="0.26458296" x="11.638891" y="7.9375005"/>
    <rect style="fill:#b3b3b3;stroke-width:0.264583" id="rect2259" width="0.26458335" height="0.5291667" x="12.435417" y="6.8791671"/>
    <rect style="fill:#b3b3b3;stroke-width:0.264583" id="rect2260" width="0.26458335" height="0.26458335" x="10.847918" y="6.8791671"/>
    <rect style="fill:#b3b3b3;stroke-width:0.264583" id="rect2261" width="0.26458335" height="0.5291667" x="10.583334" y="7.4083338"/>
  </g>
  </svg>