<!-- Created with Inkscape (http://www.inkscape.org/) --><svg xmlns:inkscape="http://www.inkscape.org/namespaces/inkscape" xmlns:sodipodi="http://sodipodi.sourceforge.net/DTD/sodipodi-0.dtd" xmlns:xlink="http://www.w3.org/1999/xlink" xmlns="http://www.w3.org/2000/svg" xmlns:svg="http://www.w3.org/2000/svg" width="64" height="64" viewBox="0 0 16.933333 16.933333" version="1.1" id="svg1" inkscape:version="1.3.2 (091e20e, 2023-11-25)" sodipodi:docname="dog&#21407;&#22411;open.tar">
  <sodipodi:namedview id="namedview1" pagecolor="#ffffff" bordercolor="#111111" borderopacity="1" inkscape:showpageshadow="0" inkscape:pageopacity="0" inkscape:pagecheckerboard="1" inkscape:deskcolor="#d1d1d1" inkscape:document-units="mm" showgrid="true" inkscape:zoom="5.9229424" inkscape:cx="28.955203" inkscape:cy="18.065345" inkscape:window-width="1328" inkscape:window-height="771" inkscape:window-x="0" inkscape:window-y="25" inkscape:window-maximized="0" inkscape:current-layer="layer75" showguides="true">
    <inkscape:grid id="grid1" units="px" originx="0" originy="0" spacingx="0.26458334" spacingy="0.26458334" empcolor="#0099e5" empopacity="0.30196078" color="#0099e5" opacity="0.14901961" empspacing="5" dotted="false" gridanglex="30" gridanglez="30" visible="true" enabled="true"/>
  </sodipodi:namedview>
  <defs id="defs1"/>
  <g inkscape:groupmode="layer" id="layer81" inkscape:label="&#30333;&#33394;&#34915;&#26381;1&#21495;" style="display:inline" sodipodi:insensitive="true">
    <rect style="fill:#000000;stroke-width:0.264583" id="rect2332" width="0.26458335" height="0.26458335" x="7.9375005" y="8.4666672"/>
    <rect style="fill:#000000;stroke-width:0.264583" id="rect2334" width="0.1309038" height="0.2645824" x="8.2020836" y="12.700001"/>
    <rect style="fill:#000000;stroke-width:0.264583" id="rect2335" width="0.5291667" height="0.26458335" x="10.847918" y="8.4666672"/>
    <rect style="fill:#000000;stroke-width:0.264583" id="rect2336" width="0.5291667" height="0.26458335" x="11.377084" y="8.7312508"/>
    <rect style="fill:#000000;stroke-width:0.264583" id="rect2337" width="0.26458335" height="0.26458335" x="11.906251" y="8.9958344"/>
    <rect style="fill:#000000;stroke-width:0.264583" id="rect2338" width="0.21125996" height="0.26458222" x="12.170835" y="9.2604179"/>
    <rect style="fill:#000000;stroke-width:0.264583" id="rect2339" width="1.0583334" height="0.26458335" x="12.435417" y="9.5250006"/>
    <rect style="fill:#000000;stroke-width:0.264583" id="rect2340" width="0.17794567" height="0.26458222" x="12.257472" y="9.2604179"/>
    <rect style="fill:#000000;stroke-width:0.264583" id="rect2341" width="0.26458335" height="0.26458335" x="12.964584" y="12.700001"/>
    <rect style="fill:#000000;stroke-width:0.264583" id="rect2342" width="2.1194429" height="0.26458263" x="10.845141" y="12.964584"/>
    <rect style="fill:#000000;stroke-width:0.264583" id="rect2343" width="0.26458335" height="0.26458335" x="10.583334" y="13.229168"/>
    <rect style="fill:#000000;stroke-width:0.264583" id="rect2345" width="0.26458335" height="0.5291667" x="8.2020836" y="8.7312508"/>
    <rect style="fill:#000000;stroke-width:0.264583" id="rect2346" width="0.26458335" height="2.9104168" x="8.4666672" y="9.2604179"/>
    <rect style="fill:#000000;stroke-width:0.264583" id="rect2347" width="0.26458335" height="0.5291667" x="8.4666672" y="12.170835"/>
    <rect style="fill:#ffffff;stroke-width:0.264583" id="rect2348" width="2.6458335" height="0.26458335" x="8.2020836" y="8.4666672"/>
    <rect style="fill:#ffffff;stroke-width:0.264583" id="rect2349" width="2.9104168" height="0.5291667" x="8.4666672" y="8.7312508"/>
    <rect style="fill:#ffffff;stroke-width:0.264583" id="rect2350" width="0.5291667" height="0.26458335" x="10.847918" y="8.4666672"/>
    <rect style="fill:#ffffff;stroke-width:0.264583" id="rect2351" width="0.26458335" height="0.5291667" x="11.377084" y="8.7312508"/>
    <rect style="fill:#ffffff;stroke-width:0.264583" id="rect2352" width="0.39687631" height="0.26458293" x="11.509375" y="8.9958344"/>
    <rect style="fill:#ffffff;stroke-width:0.264583" id="rect2353" width="3.442359" height="2.9104173" x="8.7284756" y="9.260417"/>
    <rect style="fill:#ffffff;stroke-width:0.264583" id="rect2354" width="1.3229167" height="0.5291667" x="8.7312508" y="12.170835"/>
    <rect style="fill:#ffffff;stroke-width:0.264583" id="rect2355" width="0.26458335" height="3.1750002" x="12.170835" y="9.5250006"/>
    <rect style="fill:#ffffff;stroke-width:0.264583" id="rect2356" width="1.3229167" height="2.3812501" x="12.435417" y="9.7895842"/>
    <rect style="fill:#ffffff;stroke-width:0.264583" id="rect2357" width="0.26458335" height="1.3229167" x="13.758334" y="10.318751"/>
    <rect style="fill:#ffffff;stroke-width:0.264583" id="rect2358" width="3.1777759" height="0.52916646" x="10.315975" y="12.170835"/>
    <rect style="fill:#ececec;stroke-width:0.264583" id="rect2359" width="2.6458335" height="0.26458335" x="10.318751" y="12.700001"/>
    <rect style="fill:#ffffff;stroke-width:0.264583" id="rect2360" width="0.26458335" height="0.26458335" x="10.583334" y="12.964584"/>
    <rect style="fill:#cccccc;stroke-width:0.264583" id="rect2361" width="0.26458335" height="1.3229167" x="13.758334" y="10.318751"/>
    <rect style="fill:#cccccc;stroke-width:0.264583" id="rect2362" width="0.39548633" height="0.26458263" x="13.493751" y="11.906251"/>
    <rect style="fill:#ececec;stroke-width:0.264583" id="rect2363" width="0.26458335" height="0.26458335" x="10.583334" y="12.964584"/>
    <rect style="fill:#f2f2f2;stroke-width:0.264583" id="rect2364" width="2.6458335" height="0.79375005" x="10.847918" y="11.906251"/>
    <rect style="fill:#ececec;stroke-width:0.264583" id="rect2365" width="0.5291667" height="0.26458335" x="10.318751" y="12.435417"/>
    <rect style="fill:#ececec;stroke-width:0.264583" id="rect2366" width="1.320141" height="0.52916646" x="8.7312508" y="12.170835"/>
    <rect style="fill:#ececec;stroke-width:0.264583" id="rect2367" width="0.5291667" height="2.1166668" x="13.229168" y="9.7895842"/>
    <rect style="fill:#ececec;stroke-width:0.264583" id="rect2368" width="0.26458335" height="1.5875001" x="12.964584" y="10.318751"/>
    <rect style="fill:#ececec;stroke-width:0.264583" id="rect2369" width="1.3229167" height="0.26458335" x="11.641667" y="11.641667"/>
    <rect style="fill:#ececec;stroke-width:0.264583" id="rect2370" width="0.3954865" height="0.31010857" x="12.700001" y="11.377084"/>
    <rect style="fill:#b3b3b3;stroke-width:0.264583" id="rect2371" width="0.2618067" height="0.52916551" x="13.229168" y="12.170835"/>
    <rect style="fill:#ffffff;stroke-width:0.264583" id="rect2372" width="1.0583334" height="0.26458335" x="11.906251" y="12.700001"/>
    <rect style="fill:#b3b3b3;stroke-width:0.264583" id="rect2373" width="0.79375005" height="0.26458335" x="9.2604179" y="12.435417"/>
    <rect style="fill:#000000;stroke-width:0.264583" id="rect2374" width="0.79375005" height="0.26458335" x="8.9958344" y="9.2604179"/>
    <rect style="fill:#000000;stroke-width:0.264583" id="rect2375" width="0.26458335" height="1.0583334" x="8.9958344" y="9.5250006"/>
    <rect style="fill:#000000;stroke-width:0.264583" id="rect2376" width="0.5291667" height="0.26458335" x="9.2604179" y="10.318751"/>
    <rect style="fill:#000000;stroke-width:0.264583" id="rect2377" width="0.26458335" height="1.3229167" x="10.054168" y="9.2604179"/>
    <rect style="fill:#000000;stroke-width:0.264583" id="rect2378" width="0.26458335" height="1.3229167" x="10.583334" y="9.2604179"/>
    <rect style="fill:#000000;stroke-width:0.264583" id="rect2379" width="0.26458335" height="1.3229167" x="11.112501" y="9.2604179"/>
    <rect style="fill:#000000;stroke-width:0.264583" id="rect2380" width="0.26458335" height="1.3229167" x="11.641667" y="9.2604179"/>
    <rect style="fill:#000000;stroke-width:0.264583" id="rect2381" width="0.26458335" height="0.26458335" x="10.318751" y="9.2604179"/>
    <rect style="fill:#000000;stroke-width:0.264583" id="rect2382" width="0.26458335" height="0.26458335" x="10.318751" y="10.318751"/>
    <rect style="fill:#000000;stroke-width:0.264583" id="rect2383" width="0.26458335" height="0.26458335" x="11.377084" y="9.2604179"/>
    <rect style="fill:#000000;stroke-width:0.264583" id="rect2384" width="0.26458335" height="0.26458335" x="11.377084" y="10.318751"/>
    <rect style="fill:#000000;stroke-width:0.264583" id="rect2385" width="0.26458335" height="1.0583334" x="12.170835" y="9.5250006"/>
    <rect style="fill:#000000;stroke-width:0.264583" id="rect2386" width="0.5535965" height="0.26458195" x="12.410987" y="10.318751"/>
    <rect style="fill:#ffffff;stroke-width:0.264583" id="rect2387" width="2.9104168" height="2.1166668" x="8.9958344" y="9.2604179"/>
    <rect style="fill:#ffffff;stroke-width:0.264583" id="rect2388" width="0.79375005" height="0.79375005" x="12.170835" y="9.7895842"/>
    <rect style="fill:#f2f2f2;stroke-width:0.264583" id="rect2389" width="0.26458335" height="1.0583334" x="10.318751" y="11.112501"/>
    <rect style="fill:#f2f2f2;stroke-width:0.264583" id="rect2390" width="0.26458335" height="0.79375005" x="10.583334" y="10.318751"/>
    <rect style="fill:#000000;stroke-width:0.264583" id="rect2391" width="0.26458335" height="1.3229167" x="8.9958344" y="9.2604179"/>
    <rect style="fill:#000000;stroke-width:0.264583" id="rect2392" width="0.5291667" height="0.26458335" x="9.2604179" y="10.318751"/>
    <rect style="fill:#000000;stroke-width:0.264583" id="rect2393" width="0.26180759" height="1.3229157" x="10.054168" y="9.2604179"/>
    <rect style="fill:#000000;stroke-width:0.264583" id="rect2394" width="0.5291667" height="0.26458335" x="10.318751" y="9.2604179"/>
    <rect style="fill:#000000;stroke-width:0.264583" id="rect2395" width="0.5291667" height="0.26458335" x="10.318751" y="9.7895842"/>
    <rect style="fill:#000000;stroke-width:0.264583" id="rect2396" width="0.79375005" height="0.26458335" x="11.112501" y="9.2604179"/>
    <rect style="fill:#000000;stroke-width:0.264583" id="rect2397" width="0.26458335" height="1.0583334" x="11.112501" y="9.5250006"/>
    <rect style="fill:#000000;stroke-width:0.264583" id="rect2398" width="0.26458335" height="0.79375005" x="11.641667" y="9.7895842"/>
    <rect style="fill:#000000;stroke-width:0.264583" id="rect2399" width="0.26458335" height="0.26458335" x="11.377084" y="10.318751"/>
    <rect style="fill:#b3b3b3;stroke-width:0.264583" id="rect2401" width="0.26458335" height="1.0583334" x="11.641667" y="11.906251"/>
    <rect style="fill:#b3b3b3;stroke-width:0.264583" id="rect2402" width="0.26458335" height="0.5291667" x="11.906251" y="11.377084"/>
    <rect style="fill:#b3b3b3;stroke-width:0.264583" id="rect2403" width="0.26458335" height="0.26458335" x="12.700001" y="12.700001"/>
    <rect style="fill:#b3b3b3;stroke-width:0.264583" id="rect2404" width="1.8520834" height="0.26458335" x="10.847918" y="12.700001"/>
    <rect style="fill:#b3b3b3;stroke-width:0.264583" id="rect2405" width="0.26458335" height="0.26458335" x="10.583334" y="12.964584"/>
    <rect style="fill:#000000;stroke-width:0.264583" id="rect2435" width="0.13090298" height="0.2645843" x="13.758334" y="11.90625"/>
  </g>
  </svg>